<svg width="174" height="159" viewBox="0 0 174 159" fill="none" xmlns="http://www.w3.org/2000/svg">
<g filter="url(#filter0_b_8_1869)">
<g opacity="0.8">
<g filter="url(#filter1_dd_8_1869)">
<mask id="path-1-inside-1_8_1869" fill="white">
<rect x="3.28186" y="137.987" width="18.87" height="18.87" rx="0.545375"/>
</mask>
<rect x="3.28186" y="137.987" width="18.87" height="18.87" rx="0.545375" stroke="#9DFFF9" stroke-width="4.9226" shape-rendering="crispEdges" mask="url(#path-1-inside-1_8_1869)"/>
</g>
<path d="M8.60394 147.18L10.5393 151.293L18.0389 143.551" stroke="#9DFFF9" stroke-width="1.64087"/>
</g>
</g>
<path d="M17.6089 13.8995V18.1091H0.266801V13.8995H17.6089ZM6.13643 6.10302H11.6207V38.0302C11.6207 39.1172 11.7887 39.9374 12.1246 40.4907C12.4606 41.0441 12.8954 41.4097 13.429 41.5876C13.9626 41.7654 14.5357 41.8544 15.1484 41.8544C15.6029 41.8544 16.0772 41.8149 16.5713 41.7358C17.0852 41.637 17.4705 41.5579 17.7275 41.4986L17.7571 45.975C17.3223 46.1133 16.7492 46.2418 16.0377 46.3604C15.346 46.4987 14.5061 46.5679 13.5179 46.5679C12.174 46.5679 10.9388 46.3011 9.81235 45.7675C8.68586 45.2339 7.78664 44.3445 7.1147 43.0995C6.46252 41.8346 6.13643 40.135 6.13643 38.0006V6.10302ZM29.526 18.9391V45.975H24.0417V13.8995H29.3778L29.526 18.9391ZM39.5459 13.7217L39.5162 18.8205C39.0617 18.7217 38.6269 18.6624 38.2119 18.6427C37.8166 18.6032 37.362 18.5834 36.8482 18.5834C35.5834 18.5834 34.4668 18.781 33.4984 19.1763C32.53 19.5715 31.7098 20.1249 31.0379 20.8364C30.3659 21.5478 29.8323 22.3977 29.4371 23.3858C29.0616 24.3542 28.8145 25.4214 28.6959 26.5874L27.1544 27.4768C27.1544 25.54 27.3422 23.7218 27.7177 22.0222C28.1129 20.3225 28.7157 18.8205 29.526 17.5162C30.3363 16.1921 31.364 15.1644 32.609 14.4331C33.8739 13.6822 35.3759 13.3067 37.115 13.3067C37.5103 13.3067 37.9648 13.3561 38.4787 13.4549C38.9925 13.5339 39.3482 13.6229 39.5459 13.7217ZM54.1606 42.6548L63.0837 13.8995H68.9533L56.0875 50.9256C55.7911 51.7161 55.3958 52.566 54.9017 53.4751C54.4274 54.4039 53.8148 55.2834 53.0638 56.1134C52.3128 56.9435 51.4037 57.6154 50.3365 58.1293C49.289 58.6629 48.0341 58.9297 46.5716 58.9297C46.1368 58.9297 45.5835 58.8704 44.9115 58.7518C44.2396 58.6332 43.7653 58.5344 43.4886 58.4553L43.4589 54.0087C43.617 54.0284 43.8641 54.0482 44.2001 54.0679C44.5558 54.1075 44.8028 54.1272 44.9412 54.1272C46.1862 54.1272 47.2436 53.9592 48.1131 53.6233C48.9827 53.3071 49.7139 52.7636 50.3068 51.9928C50.9195 51.2418 51.4432 50.2043 51.878 48.8801L54.1606 42.6548ZM47.6092 13.8995L55.9393 38.801L57.3622 44.5817L53.4195 46.5975L41.621 13.8995H47.6092ZM12.3618 83.37V107.975H3.11268V75.8995H11.7985L12.3618 83.37ZM21.937 75.6624L21.7888 84.289C21.3935 84.2297 20.8797 84.1803 20.2472 84.1407C19.6148 84.0814 19.0713 84.0518 18.6168 84.0518C17.431 84.0518 16.4033 84.2 15.5338 84.4965C14.6839 84.7732 13.9725 85.1882 13.3993 85.7415C12.846 86.2949 12.431 86.9866 12.1543 87.8167C11.8776 88.627 11.7393 89.5657 11.7393 90.6329L9.99022 89.7732C9.99022 87.6586 10.1977 85.7218 10.6128 83.9629C11.0278 82.204 11.6306 80.6822 12.4211 79.3976C13.2116 78.0932 14.18 77.0853 15.3262 76.3739C16.4725 75.6624 17.7769 75.3067 19.2393 75.3067C19.7136 75.3067 20.1978 75.3363 20.6919 75.3956C21.186 75.4549 21.601 75.5438 21.937 75.6624ZM35.4846 75.8995V107.975H26.2058V75.8995H35.4846ZM25.6426 67.5991C25.6426 66.2552 26.1169 65.1583 27.0655 64.3085C28.0141 63.4389 29.2592 63.0042 30.8007 63.0042C32.3422 63.0042 33.5873 63.4389 34.5359 64.3085C35.5043 65.1583 35.9885 66.2552 35.9885 67.5991C35.9885 68.9232 35.5043 70.02 34.5359 70.8896C33.5873 71.7394 32.3422 72.1643 30.8007 72.1643C29.2592 72.1643 28.0141 71.7394 27.0655 70.8896C26.1169 70.02 25.6426 68.9232 25.6426 67.5991ZM58.4591 75.8995V82.3917H39.4273V75.8995H58.4591ZM43.785 67.9548H53.0638V97.9255C53.0638 98.8148 53.1725 99.4966 53.3899 99.9709C53.6073 100.445 53.963 100.781 54.4571 100.979C54.9512 101.157 55.5836 101.246 56.3543 101.246C56.9077 101.246 57.382 101.226 57.7773 101.186C58.1725 101.147 58.5382 101.097 58.8741 101.038V107.738C58.0836 107.995 57.2437 108.192 56.3543 108.331C55.465 108.489 54.4966 108.568 53.4492 108.568C51.4531 108.568 49.7238 108.242 48.2614 107.59C46.8187 106.937 45.7119 105.91 44.9412 104.507C44.1704 103.084 43.785 101.236 43.785 98.963V67.9548ZM81.7301 100.238V75.8995H91.0385V107.975H82.323L81.7301 100.238ZM82.7084 93.6863L85.2578 93.627C85.2578 95.7812 85.0009 97.7674 84.487 99.5856C83.993 101.404 83.242 102.985 82.234 104.329C81.2459 105.673 80.0107 106.72 78.5285 107.471C77.066 108.202 75.3565 108.568 73.4 108.568C71.8189 108.568 70.3663 108.35 69.0422 107.916C67.7379 107.461 66.6114 106.76 65.6627 105.811C64.7141 104.843 63.9829 103.607 63.469 102.105C62.9552 100.584 62.6983 98.7654 62.6983 96.6507V75.8995H71.9474V96.71C71.9474 97.5401 72.0462 98.2516 72.2438 98.8444C72.4612 99.4176 72.7478 99.8919 73.1035 100.267C73.479 100.643 73.9336 100.92 74.4672 101.097C75.0205 101.275 75.6233 101.364 76.2755 101.364C77.9158 101.364 79.2004 101.028 80.1293 100.356C81.0779 99.6646 81.74 98.7456 82.1155 97.5994C82.5107 96.4334 82.7084 95.129 82.7084 93.6863ZM114.043 100.327V86.5716C114.043 85.6032 113.894 84.7732 113.598 84.0814C113.302 83.3897 112.837 82.8463 112.205 82.451C111.572 82.0557 110.752 81.8581 109.744 81.8581C108.894 81.8581 108.153 82.0063 107.521 82.3028C106.908 82.5992 106.434 83.0241 106.098 83.5775C105.782 84.1309 105.624 84.8127 105.624 85.623H96.3745C96.3745 84.1803 96.7006 82.8364 97.3528 81.5913C98.005 80.3462 98.9338 79.2494 100.139 78.3008C101.365 77.3521 102.827 76.6209 104.527 76.1071C106.226 75.5735 108.134 75.3067 110.248 75.3067C112.758 75.3067 114.991 75.7316 116.948 76.5814C118.924 77.4114 120.485 78.6664 121.632 80.3462C122.778 82.0063 123.351 84.1012 123.351 86.6309V100.06C123.351 101.997 123.46 103.518 123.677 104.625C123.914 105.712 124.25 106.661 124.685 107.471V107.975H115.347C114.912 107.046 114.586 105.9 114.369 104.536C114.151 103.153 114.043 101.75 114.043 100.327ZM115.199 88.4096L115.258 93.5084H110.663C109.636 93.5084 108.746 93.6369 107.995 93.8938C107.264 94.1507 106.671 94.5065 106.217 94.961C105.762 95.3958 105.426 95.9096 105.209 96.5025C105.011 97.0757 104.912 97.7081 104.912 98.3998C104.912 99.052 105.07 99.6449 105.386 100.178C105.703 100.692 106.137 101.097 106.691 101.394C107.244 101.69 107.886 101.839 108.618 101.839C109.823 101.839 110.851 101.601 111.701 101.127C112.57 100.653 113.242 100.08 113.717 99.4077C114.191 98.716 114.428 98.0737 114.428 97.4808L116.651 101.335C116.296 102.125 115.861 102.945 115.347 103.795C114.833 104.625 114.181 105.406 113.39 106.137C112.6 106.848 111.641 107.431 110.515 107.886C109.408 108.341 108.074 108.568 106.513 108.568C104.497 108.568 102.669 108.163 101.029 107.352C99.3884 106.522 98.0741 105.386 97.086 103.943C96.1176 102.501 95.6334 100.841 95.6334 98.963C95.6334 97.2832 95.9397 95.7911 96.5524 94.4867C97.165 93.1823 98.084 92.0756 99.3093 91.1665C100.554 90.2574 102.116 89.5756 103.993 89.121C105.871 88.6467 108.064 88.4096 110.574 88.4096H115.199ZM139.181 62.4409V107.975H129.903V62.4409H139.181ZM162.927 99.052C162.927 98.4591 162.739 97.9353 162.363 97.4808C162.008 97.0262 161.355 96.6112 160.407 96.2357C159.478 95.8602 158.164 95.4847 156.464 95.1092C154.863 94.7733 153.371 94.3385 151.988 93.8049C150.604 93.2515 149.399 92.5894 148.371 91.8187C147.343 91.0282 146.543 90.0993 145.97 89.0321C145.397 87.9451 145.11 86.7099 145.11 85.3265C145.11 83.9826 145.397 82.7079 145.97 81.5024C146.563 80.2968 147.413 79.2296 148.519 78.3008C149.646 77.3719 151.009 76.6407 152.61 76.1071C154.231 75.5735 156.069 75.3067 158.124 75.3067C160.95 75.3067 163.391 75.7513 165.446 76.6407C167.502 77.5102 169.083 78.7355 170.189 80.3166C171.296 81.8779 171.85 83.6664 171.85 85.6823H162.6C162.6 84.8522 162.442 84.1309 162.126 83.5182C161.81 82.9055 161.326 82.4312 160.674 82.0953C160.021 81.7395 159.162 81.5617 158.095 81.5617C157.264 81.5617 156.533 81.7099 155.901 82.0063C155.288 82.283 154.804 82.6684 154.448 83.1625C154.112 83.6565 153.944 84.2297 153.944 84.8819C153.944 85.3364 154.043 85.7514 154.241 86.1269C154.458 86.4827 154.784 86.8186 155.219 87.1348C155.674 87.4313 156.257 87.6981 156.968 87.9352C157.699 88.1724 158.589 88.3997 159.636 88.6171C161.869 89.0321 163.905 89.6151 165.743 90.3661C167.601 91.1171 169.083 92.1547 170.189 93.4788C171.316 94.8029 171.879 96.5519 171.879 98.7259C171.879 100.149 171.553 101.453 170.901 102.639C170.269 103.825 169.35 104.862 168.144 105.752C166.938 106.641 165.496 107.333 163.816 107.827C162.136 108.321 160.239 108.568 158.124 108.568C155.1 108.568 152.541 108.024 150.446 106.937C148.351 105.85 146.77 104.487 145.703 102.846C144.656 101.186 144.132 99.4867 144.132 97.7476H152.818C152.857 98.8148 153.124 99.6844 153.618 100.356C154.132 101.028 154.794 101.522 155.604 101.839C156.415 102.135 157.324 102.283 158.332 102.283C159.34 102.283 160.18 102.145 160.851 101.868C161.523 101.592 162.037 101.216 162.393 100.742C162.749 100.248 162.927 99.6844 162.927 99.052ZM47.1349 152.062C48.4392 152.062 49.6448 151.795 50.7515 151.261C51.8582 150.728 52.7673 149.997 53.4788 149.068C54.1903 148.119 54.5954 147.042 54.6942 145.837H59.9117C59.8129 147.734 59.1706 149.503 57.9848 151.143C56.8188 152.763 55.2871 154.078 53.3899 155.086C51.4926 156.074 49.4076 156.568 47.1349 156.568C44.7238 156.568 42.619 156.143 40.8206 155.293C39.0419 154.443 37.5597 153.277 36.3739 151.795C35.2079 150.313 34.3284 148.613 33.7355 146.696C33.1624 144.759 32.8758 142.714 32.8758 140.56V139.315C32.8758 137.161 33.1624 135.125 33.7355 133.208C34.3284 131.271 35.2079 129.562 36.3739 128.079C37.5597 126.597 39.0419 125.431 40.8206 124.581C42.619 123.732 44.7238 123.307 47.1349 123.307C49.6448 123.307 51.8385 123.82 53.716 124.848C55.5935 125.856 57.0658 127.24 58.133 128.998C59.22 130.738 59.8129 132.714 59.9117 134.927H54.6942C54.5954 133.603 54.2199 132.408 53.5677 131.34C52.9353 130.273 52.0658 129.423 50.959 128.791C49.8721 128.139 48.5973 127.813 47.1349 127.813C45.455 127.813 44.042 128.149 42.8957 128.821C41.7692 129.473 40.87 130.362 40.198 131.489C39.5459 132.595 39.0715 133.83 38.7751 135.194C38.4984 136.538 38.3601 137.912 38.3601 139.315V140.56C38.3601 141.963 38.4984 143.346 38.7751 144.71C39.0518 146.074 39.5162 147.309 40.1684 148.416C40.8403 149.522 41.7396 150.412 42.8661 151.084C44.0123 151.736 45.4352 152.062 47.1349 152.062ZM64.6252 140.293V139.611C64.6252 137.299 64.9611 135.155 65.6331 133.178C66.305 131.182 67.2734 129.453 68.5383 127.99C69.8031 126.508 71.3347 125.362 73.1332 124.552C74.9316 123.722 76.9474 123.307 79.1807 123.307C81.4336 123.307 83.4594 123.722 85.2578 124.552C87.076 125.362 88.6175 126.508 89.8823 127.99C91.1669 129.453 92.1452 131.182 92.8172 133.178C93.4891 135.155 93.8251 137.299 93.8251 139.611V140.293C93.8251 142.605 93.4891 144.75 92.8172 146.726C92.1452 148.702 91.1669 150.431 89.8823 151.914C88.6175 153.376 87.0859 154.522 85.2874 155.352C83.5088 156.163 81.4929 156.568 79.2399 156.568C76.987 156.568 74.9612 156.163 73.1628 155.352C71.3644 154.522 69.8229 153.376 68.5383 151.914C67.2734 150.431 66.305 148.702 65.6331 146.726C64.9611 144.75 64.6252 142.605 64.6252 140.293ZM70.1094 139.611V140.293C70.1094 141.894 70.2972 143.406 70.6727 144.829C71.0482 146.232 71.6114 147.477 72.3624 148.564C73.1332 149.651 74.0917 150.51 75.2379 151.143C76.3842 151.756 77.7182 152.062 79.2399 152.062C80.7419 152.062 82.0562 151.756 83.1827 151.143C84.3289 150.51 85.2776 149.651 86.0286 148.564C86.7795 147.477 87.3428 146.232 87.7183 144.829C88.1136 143.406 88.3112 141.894 88.3112 140.293V139.611C88.3112 138.03 88.1136 136.538 87.7183 135.135C87.3428 133.712 86.7697 132.457 85.9989 131.37C85.2479 130.263 84.2993 129.394 83.153 128.761C82.0265 128.129 80.7024 127.813 79.1807 127.813C77.6787 127.813 76.3545 128.129 75.2083 128.761C74.0818 129.394 73.1332 130.263 72.3624 131.37C71.6114 132.457 71.0482 133.712 70.6727 135.135C70.2972 136.538 70.1094 138.03 70.1094 139.611ZM106.157 130.273V155.975H100.643V123.9H105.861L106.157 130.273ZM105.031 138.722L102.481 138.633C102.501 136.439 102.788 134.413 103.341 132.556C103.894 130.678 104.715 129.048 105.801 127.664C106.888 126.281 108.242 125.214 109.863 124.463C111.483 123.692 113.361 123.307 115.495 123.307C116.997 123.307 118.381 123.524 119.646 123.959C120.91 124.374 122.007 125.036 122.936 125.945C123.865 126.854 124.586 128.02 125.1 129.443C125.614 130.866 125.871 132.585 125.871 134.601V155.975H120.387V134.868C120.387 133.188 120.1 131.844 119.527 130.836C118.974 129.828 118.183 129.097 117.155 128.643C116.128 128.168 114.922 127.931 113.539 127.931C111.918 127.931 110.564 128.218 109.477 128.791C108.39 129.364 107.521 130.155 106.869 131.162C106.217 132.17 105.742 133.327 105.446 134.631C105.169 135.915 105.031 137.279 105.031 138.722ZM125.812 135.698L122.136 136.825C122.155 135.066 122.442 133.376 122.995 131.755C123.568 130.135 124.389 128.692 125.456 127.427C126.543 126.162 127.877 125.164 129.458 124.433C131.039 123.682 132.847 123.307 134.883 123.307C136.602 123.307 138.124 123.534 139.448 123.988C140.792 124.443 141.918 125.145 142.828 126.093C143.756 127.022 144.458 128.218 144.932 129.68C145.407 131.143 145.644 132.882 145.644 134.898V155.975H140.13V134.838C140.13 133.04 139.843 131.647 139.27 130.659C138.717 129.651 137.926 128.949 136.899 128.554C135.891 128.139 134.685 127.931 133.282 127.931C132.076 127.931 131.009 128.139 130.08 128.554C129.152 128.969 128.371 129.542 127.738 130.273C127.106 130.985 126.622 131.805 126.286 132.734C125.97 133.662 125.812 134.651 125.812 135.698Z" fill="#9DFFF9"/>
<defs>
<filter id="filter0_b_8_1869" x="2.13657" y="136.842" width="21.1606" height="21.1606" filterUnits="userSpaceOnUse" color-interpolation-filters="sRGB">
<feFlood flood-opacity="0" result="BackgroundImageFix"/>
<feGaussianBlur in="BackgroundImage" stdDeviation="0.572644"/>
<feComposite in2="SourceAlpha" operator="in" result="effect1_backgroundBlur_8_1869"/>
<feBlend mode="normal" in="SourceGraphic" in2="effect1_backgroundBlur_8_1869" result="shape"/>
</filter>
<filter id="filter1_dd_8_1869" x="1.75481" y="136.46" width="21.9241" height="21.9241" filterUnits="userSpaceOnUse" color-interpolation-filters="sRGB">
<feFlood flood-opacity="0" result="BackgroundImageFix"/>
<feColorMatrix in="SourceAlpha" type="matrix" values="0 0 0 0 0 0 0 0 0 0 0 0 0 0 0 0 0 0 127 0" result="hardAlpha"/>
<feOffset/>
<feGaussianBlur stdDeviation="0.763525"/>
<feColorMatrix type="matrix" values="0 0 0 0 0.32549 0 0 0 0 0.32549 0 0 0 0 0.74902 0 0 0 0.07 0"/>
<feBlend mode="normal" in2="BackgroundImageFix" result="effect1_dropShadow_8_1869"/>
<feColorMatrix in="SourceAlpha" type="matrix" values="0 0 0 0 0 0 0 0 0 0 0 0 0 0 0 0 0 0 127 0" result="hardAlpha"/>
<feMorphology radius="0.0818062" operator="dilate" in="SourceAlpha" result="effect2_dropShadow_8_1869"/>
<feOffset/>
<feGaussianBlur stdDeviation="0.190881"/>
<feComposite in2="hardAlpha" operator="out"/>
<feColorMatrix type="matrix" values="0 0 0 0 0 0 0 0 0 0 0 0 0 0 0 0 0 0 0.03 0"/>
<feBlend mode="normal" in2="effect1_dropShadow_8_1869" result="effect2_dropShadow_8_1869"/>
<feBlend mode="normal" in="SourceGraphic" in2="effect2_dropShadow_8_1869" result="shape"/>
</filter>
</defs>
</svg>
